# xmcd
#
# Track frame offsets: 
#        150
#        15490
#        34595
#        64020
#        94655
#        118040
#        140280
#        171590
#        195070
#
# Disc length: 2973 seconds
#
# Revision: 3
# Processed by: cddbd v1.5.2PL0 Copyright (c) Steve Scherf et al.
# Submitted via: ExactAudioCopyFreeDBPlugin 1.0
#
DISCID=6b0b9b09
DTITLE=Angelo Branduardi - Futuro Antico II (Sulle orme dei Patriarchi
DTITLE=)
DYEAR=1999
DGENRE=Folk
TTITLE0=Schiarazula Marazula
TTITLE1=Ballo Milanese
TTITLE2=Suite Agnese
TTITLE3=Suite La Parma
TTITLE4=Suite d'Angleterre
TTITLE5=Suite dell'Arboscello
TTITLE6=Suite Tedesca d Ungaresca
TTITLE7=Suite Francese
TTITLE8=Suite della Paganina
EXTD=Finisterrae
EXTT0=
EXTT1=
EXTT2=
EXTT3=
EXTT4=
EXTT5=
EXTT6=
EXTT7=
EXTT8=
PLAYORDER=
